<svg width="269" height="45" viewBox="0 0 269 45" fill="none" xmlns="http://www.w3.org/2000/svg">
<path d="M68.96 36.1965C66.6133 36.1965 64.5973 35.7271 62.912 34.7885C61.248 33.8285 59.968 32.4845 59.072 30.7565C58.176 29.0071 57.728 26.9485 57.728 24.5805C57.728 22.8098 57.984 21.2205 58.496 19.8125C59.008 18.3831 59.744 17.1671 60.704 16.1645C61.664 15.1405 62.8373 14.3618 64.224 13.8285C65.632 13.2738 67.2107 12.9965 68.96 12.9965C70.1333 12.9965 71.2853 13.1458 72.416 13.4445C73.5467 13.7431 74.5387 14.1698 75.392 14.7245C75.84 15.0018 76.1387 15.3431 76.288 15.7485C76.4373 16.1325 76.4693 16.5165 76.384 16.9005C76.2987 17.2631 76.1173 17.5725 75.84 17.8285C75.584 18.0845 75.2533 18.2338 74.848 18.2765C74.464 18.2978 74.0373 18.1591 73.568 17.8605C72.9067 17.4338 72.192 17.1245 71.424 16.9325C70.656 16.7405 69.8773 16.6445 69.088 16.6445C67.5733 16.6445 66.2933 16.9538 65.248 17.5725C64.2027 18.1911 63.4133 19.0871 62.88 20.2605C62.3467 21.4338 62.08 22.8738 62.08 24.5805C62.08 26.2658 62.3467 27.7058 62.88 28.9005C63.4133 30.0951 64.2027 31.0018 65.248 31.6205C66.2933 32.2391 67.5733 32.5485 69.088 32.5485C69.8987 32.5485 70.6987 32.4525 71.488 32.2605C72.2773 32.0471 73.024 31.7271 73.728 31.3005C74.1973 31.0231 74.6133 30.9058 74.976 30.9485C75.36 30.9698 75.68 31.0978 75.936 31.3325C76.192 31.5671 76.3627 31.8658 76.448 32.2285C76.5333 32.5698 76.512 32.9325 76.384 33.3165C76.256 33.6791 76 33.9991 75.616 34.2765C74.7627 34.8951 73.7387 35.3751 72.544 35.7165C71.3707 36.0365 70.176 36.1965 68.96 36.1965ZM85.174 36.1965C83.4033 36.1965 82.07 35.6951 81.174 34.6925C80.278 33.6685 79.83 32.1751 79.83 30.2125V15.0765C79.83 14.4151 80.0007 13.9138 80.342 13.5725C80.6833 13.2311 81.174 13.0605 81.814 13.0605C82.454 13.0605 82.9447 13.2311 83.286 13.5725C83.6487 13.9138 83.83 14.4151 83.83 15.0765V30.0205C83.83 31.0018 84.0327 31.7271 84.438 32.1965C84.8647 32.6658 85.462 32.9005 86.23 32.9005C86.4007 32.9005 86.5607 32.9005 86.71 32.9005C86.8593 32.8791 87.0087 32.8578 87.158 32.8365C87.4567 32.7938 87.6593 32.8791 87.766 33.0925C87.8727 33.2845 87.926 33.6898 87.926 34.3085C87.926 34.8418 87.8193 35.2578 87.606 35.5565C87.3927 35.8551 87.0407 36.0365 86.55 36.1005C86.3367 36.1218 86.1127 36.1431 85.878 36.1645C85.6433 36.1858 85.4087 36.1965 85.174 36.1965ZM97.6045 36.1965C95.8338 36.1965 94.3085 35.8658 93.0285 35.2045C91.7485 34.5431 90.7565 33.6045 90.0525 32.3885C89.3698 31.1725 89.0285 29.7325 89.0285 28.0685C89.0285 26.4471 89.3592 25.0285 90.0205 23.8125C90.7032 22.5965 91.6312 21.6471 92.8045 20.9645C93.9992 20.2605 95.3538 19.9085 96.8685 19.9085C97.9778 19.9085 98.9698 20.0898 99.8445 20.4525C100.741 20.8151 101.498 21.3378 102.117 22.0205C102.757 22.7031 103.237 23.5351 103.557 24.5165C103.898 25.4765 104.069 26.5645 104.069 27.7805C104.069 28.1645 103.93 28.4631 103.653 28.6765C103.397 28.8685 103.023 28.9645 102.533 28.9645H92.2605V26.6605H101.253L100.741 27.1405C100.741 26.1591 100.591 25.3378 100.293 24.6765C100.015 24.0151 99.5992 23.5138 99.0445 23.1725C98.5112 22.8098 97.8392 22.6285 97.0285 22.6285C96.1325 22.6285 95.3645 22.8418 94.7245 23.2685C94.1058 23.6738 93.6258 24.2605 93.2845 25.0285C92.9645 25.7751 92.8045 26.6711 92.8045 27.7165V27.9405C92.8045 29.6898 93.2098 31.0018 94.0205 31.8765C94.8525 32.7298 96.0685 33.1565 97.6685 33.1565C98.2232 33.1565 98.8418 33.0925 99.5245 32.9645C100.229 32.8151 100.89 32.5698 101.509 32.2285C101.957 31.9725 102.351 31.8658 102.693 31.9085C103.034 31.9298 103.301 32.0471 103.493 32.2605C103.706 32.4738 103.834 32.7405 103.877 33.0605C103.919 33.3591 103.855 33.6685 103.685 33.9885C103.535 34.3085 103.269 34.5858 102.885 34.8205C102.138 35.2898 101.274 35.6418 100.293 35.8765C99.3325 36.0898 98.4365 36.1965 97.6045 36.1965ZM109.284 36.1325C108.623 36.1325 108.111 35.9618 107.748 35.6205C107.407 35.2578 107.236 34.7458 107.236 34.0845V21.9885C107.236 21.3271 107.407 20.8258 107.748 20.4845C108.09 20.1431 108.57 19.9725 109.188 19.9725C109.807 19.9725 110.287 20.1431 110.628 20.4845C110.97 20.8258 111.14 21.3271 111.14 21.9885V24.0045H110.82C111.119 22.7245 111.706 21.7538 112.58 21.0925C113.455 20.4311 114.618 20.0365 116.068 19.9085C116.516 19.8658 116.868 19.9831 117.124 20.2605C117.402 20.5165 117.562 20.9218 117.604 21.4765C117.647 22.0098 117.519 22.4471 117.22 22.7885C116.943 23.1085 116.516 23.3005 115.94 23.3645L115.236 23.4285C113.935 23.5565 112.954 23.9618 112.292 24.6445C111.631 25.3058 111.3 26.2445 111.3 27.4605V34.0845C111.3 34.7458 111.13 35.2578 110.788 35.6205C110.447 35.9618 109.946 36.1325 109.284 36.1325ZM121.752 36.1325C121.112 36.1325 120.621 35.9618 120.28 35.6205C119.938 35.2578 119.768 34.7458 119.768 34.0845V15.0765C119.768 14.4151 119.938 13.9138 120.28 13.5725C120.621 13.2311 121.112 13.0605 121.752 13.0605C122.392 13.0605 122.882 13.2311 123.224 13.5725C123.586 13.9138 123.768 14.4151 123.768 15.0765V26.8845H123.832L129.112 21.3165C129.538 20.8898 129.912 20.5591 130.232 20.3245C130.552 20.0898 130.989 19.9725 131.544 19.9725C132.098 19.9725 132.514 20.1218 132.792 20.4205C133.09 20.6978 133.24 21.0391 133.24 21.4445C133.24 21.8498 133.048 22.2551 132.664 22.6605L127.095 28.5485V26.8845L133.208 33.4765C133.592 33.8818 133.762 34.2978 133.72 34.7245C133.698 35.1298 133.528 35.4711 133.208 35.7485C132.888 36.0045 132.482 36.1325 131.992 36.1325C131.394 36.1325 130.914 36.0151 130.552 35.7805C130.21 35.5458 129.826 35.1938 129.4 34.7245L123.832 28.9005H123.768V34.0845C123.768 35.4498 123.096 36.1325 121.752 36.1325ZM137.532 36.1325C137.02 36.1325 136.604 36.0151 136.284 35.7805C135.985 35.5458 135.804 35.2365 135.74 34.8525C135.676 34.4471 135.75 33.9991 135.964 33.5085L144.412 14.7885C144.689 14.1698 145.02 13.7325 145.404 13.4765C145.809 13.1991 146.268 13.0605 146.78 13.0605C147.27 13.0605 147.708 13.1991 148.092 13.4765C148.497 13.7325 148.838 14.1698 149.116 14.7885L157.596 33.5085C157.83 33.9991 157.916 34.4471 157.852 34.8525C157.788 35.2578 157.606 35.5778 157.308 35.8125C157.009 36.0258 156.614 36.1325 156.124 36.1325C155.526 36.1325 155.057 35.9938 154.716 35.7165C154.396 35.4178 154.108 34.9698 153.852 34.3725L151.772 29.5405L153.5 30.6605H139.996L141.724 29.5405L139.676 34.3725C139.398 34.9911 139.11 35.4391 138.812 35.7165C138.513 35.9938 138.086 36.1325 137.532 36.1325ZM146.716 17.7645L142.236 28.4205L141.404 27.3965H152.092L151.292 28.4205L146.78 17.7645H146.716ZM162.72 41.8925C162.08 41.8925 161.59 41.7218 161.248 41.3805C160.907 41.0391 160.736 40.5378 160.736 39.8765V21.9885C160.736 21.3271 160.907 20.8258 161.248 20.4845C161.59 20.1431 162.07 19.9725 162.688 19.9725C163.328 19.9725 163.819 20.1431 164.16 20.4845C164.502 20.8258 164.672 21.3271 164.672 21.9885V24.4845L164.32 23.5245C164.64 22.4365 165.291 21.5618 166.272 20.9005C167.275 20.2391 168.438 19.9085 169.76 19.9085C171.126 19.9085 172.32 20.2391 173.344 20.9005C174.39 21.5618 175.2 22.5005 175.776 23.7165C176.352 24.9111 176.64 26.3511 176.64 28.0365C176.64 29.7005 176.352 31.1511 175.776 32.3885C175.2 33.6045 174.4 34.5431 173.376 35.2045C172.352 35.8658 171.147 36.1965 169.76 36.1965C168.459 36.1965 167.318 35.8765 166.336 35.2365C165.355 34.5751 164.694 33.7218 164.352 32.6765H164.736V39.8765C164.736 40.5378 164.555 41.0391 164.192 41.3805C163.851 41.7218 163.36 41.8925 162.72 41.8925ZM168.64 33.1565C169.43 33.1565 170.123 32.9645 170.72 32.5805C171.318 32.1965 171.776 31.6311 172.096 30.8845C172.438 30.1165 172.608 29.1671 172.608 28.0365C172.608 26.3298 172.246 25.0605 171.52 24.2285C170.795 23.3751 169.835 22.9485 168.64 22.9485C167.851 22.9485 167.158 23.1405 166.56 23.5245C165.963 23.8871 165.494 24.4525 165.152 25.2205C164.832 25.9671 164.672 26.9058 164.672 28.0365C164.672 29.7218 165.035 31.0018 165.76 31.8765C166.486 32.7298 167.446 33.1565 168.64 33.1565ZM181.908 41.8925C181.268 41.8925 180.777 41.7218 180.436 41.3805C180.094 41.0391 179.924 40.5378 179.924 39.8765V21.9885C179.924 21.3271 180.094 20.8258 180.436 20.4845C180.777 20.1431 181.257 19.9725 181.876 19.9725C182.516 19.9725 183.006 20.1431 183.348 20.4845C183.689 20.8258 183.86 21.3271 183.86 21.9885V24.4845L183.508 23.5245C183.828 22.4365 184.478 21.5618 185.46 20.9005C186.462 20.2391 187.625 19.9085 188.948 19.9085C190.313 19.9085 191.508 20.2391 192.532 20.9005C193.577 21.5618 194.388 22.5005 194.964 23.7165C195.54 24.9111 195.828 26.3511 195.828 28.0365C195.828 29.7005 195.54 31.1511 194.964 32.3885C194.388 33.6045 193.588 34.5431 192.564 35.2045C191.54 35.8658 190.334 36.1965 188.948 36.1965C187.646 36.1965 186.505 35.8765 185.524 35.2365C184.542 34.5751 183.881 33.7218 183.54 32.6765H183.924V39.8765C183.924 40.5378 183.742 41.0391 183.38 41.3805C183.038 41.7218 182.548 41.8925 181.908 41.8925ZM187.828 33.1565C188.617 33.1565 189.31 32.9645 189.908 32.5805C190.505 32.1965 190.964 31.6311 191.284 30.8845C191.625 30.1165 191.796 29.1671 191.796 28.0365C191.796 26.3298 191.433 25.0605 190.708 24.2285C189.982 23.3751 189.022 22.9485 187.828 22.9485C187.038 22.9485 186.345 23.1405 185.748 23.5245C185.15 23.8871 184.681 24.4525 184.34 25.2205C184.02 25.9671 183.86 26.9058 183.86 28.0365C183.86 29.7218 184.222 31.0018 184.948 31.8765C185.673 32.7298 186.633 33.1565 187.828 33.1565Z" fill="#007C8A"/>
<path d="M43.1622 21.7434C42.2971 21.7434 41.5958 22.447 41.5958 23.3147V41.7228H3.13291V3.14246H34.0322C34.8974 3.14246 35.5986 2.43892 35.5986 1.57123C35.5986 0.703534 34.8974 0 34.0322 0H1.56646C0.701396 0 0 0.703534 0 1.57123V43.294C0 44.1617 0.701396 44.8652 1.56646 44.8652H43.1622C44.0272 44.8652 44.7287 44.1617 44.7287 43.294V23.3147C44.7287 22.447 44.0274 21.7434 43.1622 21.7434Z" fill="#007C8A"/>
<path d="M49.0276 1.03339C48.4159 0.419859 47.4241 0.419859 46.8122 1.03339L21.2984 26.6252L14.9594 20.2669C14.3476 19.6533 13.3559 19.6533 12.7441 20.2669C12.1324 20.8805 12.1324 21.8753 12.7441 22.489L20.1907 29.9583C20.4966 30.265 20.8975 30.4185 21.2984 30.4185C21.6993 30.4185 22.1002 30.265 22.4061 29.9583L49.0276 3.25549C49.6395 2.64183 49.6395 1.64705 49.0276 1.03339Z" fill="#007C8A"/>
</svg>
